<?xml version="1.0" encoding="UTF-8"?>
<svg version="1.1" xmlns="http://www.w3.org/2000/svg" width="421" height="238">
<path d="M0 0 C3.87485635 -0.08751413 7.74945643 -0.14056435 11.625 -0.1875 C13.26662109 -0.22520508 13.26662109 -0.22520508 14.94140625 -0.26367188 C25.10806341 -0.35609603 25.10806341 -0.35609603 30 3 C32.50009087 5.50009087 32.29712739 6.4212859 32.3125 9.875 C32.32925781 10.73867187 32.34601563 11.60234375 32.36328125 12.4921875 C31.93757021 15.43096692 30.94053466 16.79833799 29 19 C29.825 19.639375 30.65 20.27875 31.5 20.9375 C34.4442379 24.54419143 34.74108812 26.32334771 34.5 30.84375 C33.70000747 34.29371778 31.74407005 35.90927996 29 38 C26.23382437 39.38308781 23.98982 39.11210196 20.8984375 39.09765625 C19.08085937 39.09282227 19.08085937 39.09282227 17.2265625 39.08789062 C15.95554688 39.07951172 14.68453125 39.07113281 13.375 39.0625 C12.09625 39.05798828 10.8175 39.05347656 9.5 39.04882812 C6.33328708 39.03701203 3.16666644 39.02053815 0 39 C0 38.34 0 37.68 0 37 C1.98 36.505 1.98 36.505 4 36 C4 25.11 4 14.22 4 3 C2.68 2.67 1.36 2.34 0 2 C0 1.34 0 0.68 0 0 Z M12 4 C11.92741054 6.18639453 11.91626217 8.37500389 11.9375 10.5625 C11.94652344 11.76003906 11.95554688 12.95757812 11.96484375 14.19140625 C11.97644531 15.11824219 11.98804688 16.04507813 12 17 C17.91117828 17.37874801 17.91117828 17.37874801 23.5625 15.9375 C25.79083695 12.93408933 25.45264211 10.62113687 25 7 C23.45737187 4.89641619 22.31891683 4.15945841 20 3 C15.68506377 2.46061486 15.68506377 2.46061486 12 4 Z M12 20 C11.97314905 22.47923801 11.95323453 24.9581884 11.9375 27.4375 C11.92912109 28.14455078 11.92074219 28.85160156 11.91210938 29.58007812 C11.90346412 31.38693559 11.94779989 33.19387603 12 35 C13.56977574 36.56977574 15.14196387 36.20737081 17.3125 36.25 C20.19750231 36.20413351 21.84245328 36.07089602 24.5 34.875 C26.62008495 32.22489382 26.93242679 30.37866049 27 27 C26.15254366 24.14298293 26.15254366 24.14298293 24 22 C19.86345556 20.39134383 16.39169073 19.91699554 12 20 Z " fill="#FDFDFD" transform="translate(211,102)"/>
<path d="M0 0 C3.83318619 -0.08789644 7.66610928 -0.14069087 11.5 -0.1875 C13.11648437 -0.22520508 13.11648437 -0.22520508 14.765625 -0.26367188 C22.08368084 -0.33060531 27.79687359 0.17627801 34.0234375 4.359375 C38.45013782 8.91401464 39.73412132 13.07533456 40.3125 19.4375 C39.71702876 26.22587209 37.60272051 30.95021304 32.79296875 35.7734375 C28.52494762 38.69317309 24.00407984 39.24746474 18.9453125 39.1953125 C17.83671875 39.18886719 16.728125 39.18242187 15.5859375 39.17578125 C14.44382812 39.15902344 13.30171875 39.14226562 12.125 39.125 C10.9596875 39.11597656 9.794375 39.10695312 8.59375 39.09765625 C5.72895423 39.07417432 2.86458465 39.04133141 0 39 C0 38.34 0 37.68 0 37 C1.32 36.34 2.64 35.68 4 35 C4 24.77 4 14.54 4 4 C2.68 3.34 1.36 2.68 0 2 C0 1.34 0 0.68 0 0 Z M12 3 C12 13.89 12 24.78 12 36 C20.44256011 36.34642564 20.44256011 36.34642564 27 33 C31.86338626 27.61084226 32.36350116 24.18395201 32.26953125 17.05078125 C31.86531176 12.47548529 30.95933843 10.55120612 28 7 C22.47241077 2.90322479 19.24815735 3 12 3 Z " fill="#FDFDFD" transform="translate(54,102)"/>
<path d="M0 0 C0 11.88 0 23.76 0 36 C1.32 36 2.64 36 4 36 C4 36.66 4 37.32 4 38 C0.7 38.99 -2.6 39.98 -6 41 C-6 40.34 -6 39.68 -6 39 C-6.7734375 39.495 -6.7734375 39.495 -7.5625 40 C-10.97498318 41.3999931 -13.33572491 41.4422401 -17 41 C-21.32560296 38.46993034 -23.18366546 36.53362335 -24.5 31.6875 C-25.23774616 27.11651607 -24.95589022 23.22546095 -23 19 C-20.12074852 15.42039006 -17.50215965 13.09808772 -13 12 C-9.6875 12.375 -9.6875 12.375 -7 13 C-7 10.36 -7 7.72 -7 5 C-7.99 4.67 -8.98 4.34 -10 4 C-10 3.34 -10 2.68 -10 2 C-6.38026598 0.68373308 -3.90432869 0 0 0 Z M-15.6875 16.8125 C-18.6269149 20.86412595 -18.65968558 23.49689716 -18.421875 28.3984375 C-17.84370302 31.96383136 -16.80315694 33.72717005 -14 36 C-11.51749828 37.14768913 -11.51749828 37.14768913 -9 37 C-7.2220056 36.01319332 -7.2220056 36.01319332 -6 34 C-5.67367639 31.41586978 -5.53530026 29.14152951 -5.5625 26.5625 C-5.54316406 25.24378906 -5.52382812 23.92507812 -5.50390625 22.56640625 C-5.71252541 18.972688 -5.71252541 18.972688 -7.83984375 16.52734375 C-11.12220202 14.20654432 -12.40862661 14.60116678 -15.6875 16.8125 Z " fill="#FDFDFD" transform="translate(192,101)"/>
<path d="M0 0 C0.33 4.62 0.66 9.24 1 14 C1.66 13.67 2.32 13.34 3 13 C5.05859375 12.76171875 5.05859375 12.76171875 7.4375 12.6875 C8.21996094 12.65011719 9.00242187 12.61273438 9.80859375 12.57421875 C12 13 12 13 13.60498047 14.71508789 C15.21412864 17.35072278 15.41826506 18.9190939 15.51171875 21.984375 C15.56489258 23.38623047 15.56489258 23.38623047 15.61914062 24.81640625 C15.64169922 25.78449219 15.66425781 26.75257812 15.6875 27.75 C15.73874023 29.22533203 15.73874023 29.22533203 15.79101562 30.73046875 C15.87335273 33.15353199 15.94254838 35.57623998 16 38 C17.485 38.495 17.485 38.495 19 39 C19 39.33 19 39.66 19 40 C14.71 40 10.42 40 6 40 C6 39.34 6 38.68 6 38 C6.99 38 7.98 38 9 38 C9.02712351 35.60408962 9.0468982 33.20849043 9.0625 30.8125 C9.07087891 30.13896484 9.07925781 29.46542969 9.08789062 28.77148438 C9.10606538 25.04565869 8.89299392 21.6211958 8 18 C4.95613276 17.91773332 2.92824652 18.02391783 0 19 C0 25.27 0 31.54 0 38 C1.32 38.33 2.64 38.66 4 39 C4 39.33 4 39.66 4 40 C-0.62 40 -5.24 40 -10 40 C-9.01 39.01 -8.02 38.02 -7 37 C-6.73846714 34.48272281 -6.6502078 32.21896034 -6.70703125 29.70703125 C-6.71127609 29.00100266 -6.71552094 28.29497406 -6.71989441 27.56755066 C-6.73666966 25.31547697 -6.77431757 23.06430258 -6.8125 20.8125 C-6.82754843 19.28451815 -6.84123656 17.75652224 -6.85351562 16.22851562 C-6.88656911 12.48533128 -6.93834168 8.74281804 -7 5 C-7.99 4.67 -8.98 4.34 -10 4 C-10 3.34 -10 2.68 -10 2 C-6.38026598 0.68373308 -3.90432869 0 0 0 Z " fill="#FDFDFD" transform="translate(311,101)"/>
<path d="M0 0 C2.83277039 2.44943678 3.22446782 4.75088842 3.51171875 8.328125 C3.58446328 9.96818349 3.64262733 11.6089424 3.6875 13.25 C3.73874023 14.51070312 3.73874023 14.51070312 3.79101562 15.796875 C3.87323568 17.86412204 3.93830157 19.93203874 4 22 C5.32 22 6.64 22 8 22 C7.6875 23.875 7.6875 23.875 7 26 C4 28 4 28 1.4375 27.75 C-1 27 -1 27 -3 25 C-3.680625 25.515625 -4.36125 26.03125 -5.0625 26.5625 C-8.86042106 28.42105712 -10.96134968 28.06681329 -15 27 C-17.34549674 23.48175489 -17.57991403 22.14224306 -17 18 C-13.36535178 13.0756379 -8.53607304 11.15894787 -3 9 C-3.33 7.02 -3.66 5.04 -4 3 C-5.65 2.67 -7.3 2.34 -9 2 C-9.33 4.31 -9.66 6.62 -10 9 C-11.65 9 -13.3 9 -15 9 C-15.75 6.75 -15.75 6.75 -16 4 C-14.28773137 1.71697516 -12.84020643 0.39009584 -10.25 -0.8125 C-6.79657754 -1.10028521 -3.3017071 -1.1186482 0 0 Z M-10 16 C-11.14091482 18.52673046 -11.14091482 18.52673046 -11 21 C-9.17084359 23.23845015 -9.17084359 23.23845015 -6.5 23.3125 C-5.675 23.209375 -4.85 23.10625 -4 23 C-1.94074319 19.91111478 -1.7609626 19.29064073 -1.875 15.8125 C-1.936875 13.9253125 -1.936875 13.9253125 -2 12 C-5.42477569 12 -7.38801638 13.94375757 -10 16 Z " fill="#FDFDFD" transform="translate(114,114)"/>
<path d="M0 0 C3 1.5625 3 1.5625 5 4 C5.33 6.31 5.66 8.62 6 11 C0.06 11 -5.88 11 -12 11 C-9.74578095 18.31375114 -9.74578095 18.31375114 -7.3125 21.0625 C-3.52958174 22.59611551 -0.9615103 21.95842991 3 21 C4.5899433 19.07935207 4.5899433 19.07935207 5 17 C5.66 17 6.32 17 7 17 C6.8882925 20.79805508 5.64019694 22.74547249 3 25.3125 C-0.57549285 28.15965172 -3.39567612 28.78830652 -7.91796875 28.45703125 C-11.14309941 27.74907574 -12.82190629 26.44210507 -15 24 C-17.77714193 19.50367497 -17.65331918 14.11501113 -17 9 C-15.79261616 5.6018991 -14.28104653 2.80031838 -11.13671875 0.8359375 C-7.44387316 -0.60879551 -3.89523744 -0.5485272 0 0 Z M-9.8125 4.25 C-11.18447403 6.10172842 -11.18447403 6.10172842 -12 9 C-8.37 9 -4.74 9 -1 9 C-1.33 7.35 -1.66 5.7 -2 4 C-6.08841865 2.80434105 -6.08841865 2.80434105 -9.8125 4.25 Z " fill="#FDFDFD" transform="translate(348,114)"/>
<path d="M0 0 C3 1.5625 3 1.5625 5 4 C5.33 6.31 5.66 8.62 6 11 C0.06 11 -5.88 11 -12 11 C-11.1028125 13.165625 -11.1028125 13.165625 -10.1875 15.375 C-9.85105469 16.18710938 -9.51460938 16.99921875 -9.16796875 17.8359375 C-8.05560918 20.30147458 -8.05560918 20.30147458 -5 22 C-2.22974747 22.16456946 0.34853265 21.81891972 3 21 C4.5899433 19.07935207 4.5899433 19.07935207 5 17 C5.66 17 6.32 17 7 17 C6.8882925 20.79805508 5.64019694 22.74547249 3 25.3125 C-0.57549285 28.15965172 -3.39567612 28.78830652 -7.91796875 28.45703125 C-11.14309941 27.74907574 -12.82190629 26.44210507 -15 24 C-17.76925736 19.51644047 -17.67059707 14.10308018 -17 9 C-13.04336833 1.22804494 -8.55064242 -1.34127724 0 0 Z M-9.8125 4.25 C-11.18447403 6.10172842 -11.18447403 6.10172842 -12 9 C-8.37 9 -4.74 9 -1 9 C-1.33 7.35 -1.66 5.7 -2 4 C-6.08841865 2.80434105 -6.08841865 2.80434105 -9.8125 4.25 Z " fill="#FDFDFD" transform="translate(267,114)"/>
<path d="M0 0 C2.75 1.75 2.75 1.75 4 4 C3.75 6.25 3.75 6.25 3 8 C1.68 8.33 0.36 8.66 -1 9 C-2.32 7.02 -3.64 5.04 -5 3 C-7.43717258 3.27034634 -7.43717258 3.27034634 -10 4 C-12.13749925 7.20624887 -12.29574999 8.22458103 -12.3125 11.9375 C-12.32925781 12.79214844 -12.34601563 13.64679688 -12.36328125 14.52734375 C-11.92822609 17.48852568 -11.02864394 18.83027531 -9 21 C-6.6433774 22.08805146 -6.6433774 22.08805146 -4 22 C-1.33942344 20.7536564 -1.33942344 20.7536564 1 19 C1.99 18.34 2.98 17.68 4 17 C4.33 17.66 4.66 18.32 5 19 C2.491328 23.18111999 0.56688872 26.08827914 -4 28 C-7.76692609 28.40359922 -10.23834029 28.31158806 -13.75 26.875 C-17.15132199 24.04056501 -18.70612148 21.24635913 -19.28515625 16.8203125 C-19.52868827 10.53083343 -18.09795682 6.49132373 -14 1.625 C-9.43919424 -0.84543646 -5.07386182 -0.77939506 0 0 Z " fill="#FDFDFD" transform="translate(295,114)"/>
<path d="M0 0 C3.96 0 7.92 0 12 0 C12 0.66 12 1.32 12 2 C11.34 2 10.68 2 10 2 C11.65 6.29 13.3 10.58 15 15 C17.34914492 12.65085508 17.73140357 11.04320554 18.625 7.875 C18.88539063 6.96492188 19.14578125 6.05484375 19.4140625 5.1171875 C19.60742188 4.41851562 19.80078125 3.71984375 20 3 C19.34 2.67 18.68 2.34 18 2 C18 1.34 18 0.68 18 0 C21.3 0 24.6 0 28 0 C28 0.66 28 1.32 28 2 C27.32420898 2.64751221 27.32420898 2.64751221 26.63476562 3.30810547 C24.60739882 5.40632111 23.87952753 7.34773909 22.84375 10.0703125 C22.26947266 11.53791016 22.26947266 11.53791016 21.68359375 13.03515625 C20.8919209 15.10186655 20.10287432 17.16958471 19.31640625 19.23828125 C18.93355469 20.21410156 18.55070312 21.18992188 18.15625 22.1953125 C17.64288086 23.54133545 17.64288086 23.54133545 17.11914062 24.91455078 C16 27 16 27 13 28 C12.67725098 27.2479126 12.35450195 26.4958252 12.02197266 25.72094727 C10.56308853 22.33183511 9.09419365 18.94715488 7.625 15.5625 C7.11710938 14.37849609 6.60921875 13.19449219 6.0859375 11.97460938 C5.59609375 10.84990234 5.10625 9.72519531 4.6015625 8.56640625 C4.15119629 7.52427979 3.70083008 6.48215332 3.23681641 5.40844727 C2.23335804 2.87028259 2.23335804 2.87028259 0 2 C0 1.34 0 0.68 0 0 Z " fill="#FDFDFD" transform="translate(122,114)"/>
<path d="M0 0 C0.33 0.66 0.66 1.32 1 2 C1.66 1.34 2.32 0.68 3 0 C6.0625 -0.1875 6.0625 -0.1875 9 0 C10 1 10 1 10.0625 3.5625 C10.041875 4.366875 10.02125 5.17125 10 6 C8.700625 5.979375 7.40125 5.95875 6.0625 5.9375 C4.70834367 5.91600546 3.35243917 5.92851801 2 6 C0.55611429 7.21428988 0.55611429 7.21428988 0.90234375 10.81640625 C0.90901911 12.39846682 0.92098125 13.98051159 0.9375 15.5625 C0.94201172 16.36880859 0.94652344 17.17511719 0.95117188 18.00585938 C0.96299482 20.00393756 0.98093086 22.00197783 1 24 C2.32 24.33 3.64 24.66 5 25 C5 25.66 5 26.32 5 27 C0.05 27 -4.9 27 -10 27 C-10 26.34 -10 25.68 -10 25 C-9.01 24.67 -8.02 24.34 -7 24 C-7 18.06 -7 12.12 -7 6 C-7.99 5.67 -8.98 5.34 -10 5 C-9 2 -9 2 -6.6875 0.8125 C-4 0 -4 0 0 0 Z " fill="#FDFDFD" transform="translate(366,114)"/>
<path d="M0 0 C0 8.25 0 16.5 0 25 C1.32 25.33 2.64 25.66 4 26 C4 26.33 4 26.66 4 27 C-0.95 27 -5.9 27 -11 27 C-10.67 26.34 -10.34 25.68 -10 25 C-9.01 25 -8.02 25 -7 25 C-7 18.73 -7 12.46 -7 6 C-8.32 5.67 -9.64 5.34 -11 5 C-10.67 4.01 -10.34 3.02 -10 2 C-6.3962102 0.47839986 -3.94779314 0 0 0 Z " fill="#FDFDFD" transform="translate(162,114)"/>
<path d="M0 0 C1.2065625 0.0309375 1.2065625 0.0309375 2.4375 0.0625 C3.125 1.875 3.125 1.875 3.4375 4.0625 C2.25 5.875 2.25 5.875 0.4375 7.0625 C-1.75 6.75 -1.75 6.75 -3.5625 6.0625 C-3.605221 4.39638095 -3.60313832 2.72867115 -3.5625 1.0625 C-2.5625 0.0625 -2.5625 0.0625 0 0 Z " fill="#FDFDFD" transform="translate(158.5625,100.9375)"/>
</svg>
